<?xml version="1.0" encoding="utf-8"?>
<!-- Generator: Adobe Illustrator 18.0.0, SVG Export Plug-In . SVG Version: 6.00 Build 0)  -->
<!DOCTYPE svg PUBLIC "-//W3C//DTD SVG 1.1//EN" "http://www.w3.org/Graphics/SVG/1.1/DTD/svg11.dtd">
<svg version="1.1" id="Layer_1" xmlns="http://www.w3.org/2000/svg" xmlns:xlink="http://www.w3.org/1999/xlink" x="0px" y="0px"
	 viewBox="0 0 841.9 595.3" enable-background="new 0 0 841.9 595.3" xml:space="preserve">
<g>
	<circle fill="#FFFFFF" cx="141.4" cy="251.7" r="6"/>
	<g>
		<path fill="#FFFFFF" d="M105,238.3c-7.1,0-12.8,5.7-12.8,12.8c0,7.1,10,20.4,12.8,20.4c2.4,0,12.8-13.4,12.8-20.4
			C117.8,244.1,112.1,238.3,105,238.3z M105,257.7c-3.3,0-6-2.7-6-6s2.7-6,6-6c3.3,0,6,2.7,6,6S108.3,257.7,105,257.7z"/>
	</g>
	<g>
		<path fill="#FFFFFF" d="M142.1,286.9c-0.9,0-1.6-0.6-1.8-1.3c0.1,4.5-1.5,6.1-3.3,7.3c-1.6,0.8-3.1,1.2-4.7,1.1l-0.5-0.1
			c-2.6-0.5-5.1-2.5-6.6-5.3l-0.5-1c5.5-0.8,6.3-6.3,6.3-7.7c0-2.8-2.5-4.8-5.8-4.8h-4c-3.2,0-5.9,2-5.9,4.8c0,1.4,1.3,7.2,6.9,7.7
			l-0.5,0.8c-1.3,2.5-3.4,4.3-5.7,5.1c-2,0.6-4.2,0.4-6.3-0.7c-1.9-1.1-3.6-2.9-3.4-7.3c-0.2,0.8-0.9,1.4-1.7,1.4
			c-0.9,0-1.6-0.6-1.7-1.4c-0.1,4.9,1.6,8.2,5.3,10.5c1.9,1,3.8,1.6,5.8,1.6c0.2,0,0.6,0,0.8-0.1c2.4,1.7,5.4,2.5,8.5,2.5
			c3.1,0,6.1-1,8.5-2.5c2.3,0.2,4.6-0.4,6.9-1.6c3.6-2.1,5.3-5.5,5.2-10.3C143.8,286.3,143,286.9,142.1,286.9z M119.7,296
			c1.3-0.8,2.6-1.9,3.6-3.2c1,1.3,2.2,2.3,3.5,3.1C124.7,296.6,122,296.6,119.7,296z"/>
		<path fill="#FFFFFF" d="M102.8,285c0,0.1,0,0.2,0,0.3c0-0.3,0-0.5,0-0.8C102.9,284.7,102.8,284.8,102.8,285z"/>
		<path fill="#FFFFFF" d="M106.4,285c0-0.1,0-0.1,0-0.2c0,0.2,0,0.4,0,0.6C106.3,285.3,106.4,285.1,106.4,285z"/>
		<path fill="#FFFFFF" d="M104.6,286.8c0.8,0,1.6-0.6,1.7-1.4c0-0.2,0-0.4,0-0.6c-0.1-0.9-0.8-1.6-1.8-1.6c-0.8,0-1.5,0.5-1.7,1.3
			c0,0.3,0,0.6,0,0.8C103,286.2,103.7,286.8,104.6,286.8z"/>
		<path fill="#FFFFFF" d="M140.3,285.6c0-0.3,0-0.6-0.1-1c0,0.1,0,0.2,0,0.4C140.2,285.2,140.2,285.4,140.3,285.6z"/>
		<path fill="#FFFFFF" d="M144,285.4c0-0.1,0-0.3,0-0.4c0-0.2,0-0.4-0.1-0.6C143.9,284.8,144,285.1,144,285.4z"/>
		<path fill="#FFFFFF" d="M142.1,283.1c-0.9,0-1.7,0.7-1.9,1.5c0,0.3,0,0.7,0.1,1c0.2,0.8,1,1.3,1.8,1.3c0.9,0,1.7-0.6,1.9-1.5
			c0-0.3,0-0.7,0-1C143.7,283.7,142.9,283.1,142.1,283.1z"/>
	</g>
</g>
</svg>
