<?xml version="1.0" encoding="utf-8"?>
<!-- Generator: Adobe Illustrator 18.0.0, SVG Export Plug-In . SVG Version: 6.00 Build 0)  -->
<!DOCTYPE svg PUBLIC "-//W3C//DTD SVG 1.1//EN" "http://www.w3.org/Graphics/SVG/1.1/DTD/svg11.dtd">
<svg version="1.1" id="Layer_1" xmlns="http://www.w3.org/2000/svg" xmlns:xlink="http://www.w3.org/1999/xlink" x="0px" y="0px"
	 viewBox="0 0 841.9 595.3" enable-background="new 0 0 841.9 595.3" xml:space="preserve">
<path fill="#3B42B1" d="M618.4,343.1c-10.4,18-10.9,18.1-28.9,7.7l-117.1-74v99.8l36.1,27c9.6,5.5,12.8,29.4,7.3,38.9
	c-5.5,9.6-5.8,9.6-15.4,4.1l-69.4-30.4h-10.2l-69.4,30.4c-9.6,5.5-9.8,5.4-15.4-4.1c-5.5-9.6-2.2-33.4,7.3-38.9l35.8-26.7v-99.8
	l-116.7,73.7c-18,10.4-18.5,10.2-28.9-7.7c-10.4-18-4.2-41,13.8-51.4L379.1,176V96.5c0-1,0.2-1.9,0.3-2.9c-0.1-1.1-0.3-2.1-0.3-3.2
	c0-25.7,20.9-68.7,46.6-68.7s46.6,43,46.6,68.7c0,0.9-0.2,1.8-0.3,2.7c0.1,1.1,0.3,2.2,0.3,3.4v79.2l132.2,116
	C622.6,302.1,628.8,325.1,618.4,343.1z M437.5,67.6h-23.7c-6.4,0-11.6,5.2-11.6,11.6c0,6.4,5.2,11.6,11.6,11.6h23.7
	c6.4,0,11.6-5.2,11.6-11.6C449.1,72.8,443.9,67.6,437.5,67.6z"/>
</svg>
